<?xml version="1.0" encoding="utf-8"?>
<!-- Generator: Adobe Illustrator 21.0.0, SVG Export Plug-In . SVG Version: 6.00 Build 0)  -->
<svg version="1.1" id="Layer_1" xmlns="http://www.w3.org/2000/svg" xmlns:xlink="http://www.w3.org/1999/xlink" x="0px" y="0px"
	 viewBox="0 0 469 87.2" style="enable-background:new 0 0 469 87.2;" xml:space="preserve">
<style type="text/css">
	.st0{enable-background:new    ;}
	.st1{fill:#FFFFFF;}
</style>
<title>Asset 3</title>
<g id="Layer_1-2">
	<g class="st0">
		<path class="st1" d="M129.3,73.1c-0.7,0-1-0.4-1.2-1l-2.1-10.9h-13.3l-2,10.9c-0.1,0.7-0.5,1-1.2,1h-8c-0.8,0-1.2-0.4-1-1.3
			L113,14.6c0.1-0.7,0.6-1,1.3-1h10.4c0.7,0,1.1,0.3,1.3,1l12.4,57.3c0.1,0.8-0.1,1.3-1,1.3H129.3z M119.4,26.6l-4.8,26h9.5
			L119.4,26.6z"/>
	</g>
	<g class="st0">
		<path class="st1" d="M173.3,32.3c0,0.7-0.4,1.2-1.2,1.2h-7.4c-0.8,0-1.2-0.4-1.2-1.2v-6c0-1.9-1-3-3-3h-3.9c-2,0-3,1-3,3v34
			c0,2,1,3,3,3h3.9c1.9,0,3-1,3-3v-6c0-0.7,0.4-1.2,1.2-1.2h7.4c0.7,0,1.2,0.4,1.2,1.2v8c0,7-3.8,10.7-10.7,10.7h-8.3
			c-7,0-10.8-3.7-10.8-10.7V24.2c0-7,3.8-10.7,10.8-10.7h8.3c6.9,0,10.7,3.7,10.7,10.7V32.3z"/>
	</g>
	<g class="st0">
		<path class="st1" d="M205.7,13.5c0.8,0,1.2,0.4,1.2,1.2v7.4c0,0.7-0.4,1.2-1.2,1.2H197v48.6c0,0.8-0.4,1.2-1.2,1.2h-7.7
			c-0.7,0-1.2-0.4-1.2-1.2V23.3h-8.6c-0.7,0-1.2-0.4-1.2-1.2v-7.4c0-0.7,0.4-1.2,1.2-1.2H205.7z"/>
	</g>
	<g class="st0">
		<path class="st1" d="M221.8,13.5c0.7,0,1.2,0.4,1.2,1.2v57.2c0,0.7-0.4,1.2-1.2,1.2H214c-0.8,0-1.2-0.4-1.2-1.2V14.7
			c0-0.7,0.4-1.2,1.2-1.2H221.8z"/>
	</g>
	<g class="st0">
		<path class="st1" d="M262,13.5c1.1,0,1.6,0.6,1.3,1.6l-12.6,56.6c-0.2,0.9-0.7,1.3-1.6,1.3h-7.4c-0.9,0-1.4-0.4-1.6-1.3
			l-12.5-56.6c-0.2-1,0.2-1.6,1.3-1.6h7.1c0.9,0,1.4,0.4,1.6,1.3l7.8,39.9l7.9-39.9c0.2-0.9,0.7-1.3,1.6-1.3H262z"/>
		<path class="st1" d="M278.3,13.5c0.7,0,1.2,0.4,1.2,1.2v57.2c0,0.7-0.4,1.2-1.2,1.2h-7.7c-0.8,0-1.2-0.4-1.2-1.2V14.7
			c0-0.7,0.4-1.2,1.2-1.2H278.3z"/>
	</g>
	<g class="st0">
		<path class="st1" d="M314,13.5c0.8,0,1.2,0.4,1.2,1.2v7.4c0,0.7-0.4,1.2-1.2,1.2h-8.6v48.6c0,0.8-0.4,1.2-1.2,1.2h-7.7
			c-0.7,0-1.2-0.4-1.2-1.2V23.3h-8.6c-0.7,0-1.2-0.4-1.2-1.2v-7.4c0-0.7,0.4-1.2,1.2-1.2H314z"/>
	</g>
	<g class="st0">
		<path class="st1" d="M354.5,13.5c1.1,0,1.6,0.7,1.2,1.7l-13.6,33.1v23.2c0,1-0.5,1.5-1.5,1.5h-7.1c-1,0-1.5-0.5-1.5-1.5V48.4
			l-13.6-33.1c-0.4-1,0.1-1.7,1.2-1.7h7.4c0.9,0,1.4,0.4,1.7,1.2l8.3,21.4l8.3-21.4c0.3-0.8,0.8-1.2,1.7-1.2H354.5z"/>
	</g>
	<path class="st1" d="M82.9,0H4.3C1.9,0,0,1.9,0,4.3c0,0,0,0,0,0v78.5c0,2.4,1.9,4.3,4.3,4.3h78.5c2.4,0,4.3-1.9,4.3-4.3V4.3
		C87.2,1.9,85.3,0,82.9,0z M78.7,36.2c-0.3,0.8-1.3,1.7-5.2,2.9c-2.5,0.8-5.1,1.4-7.7,1.8l0.4,1c1,1.1,1.8,2.4,2.5,3.7
		c0.6,1.6,0.9,3.3,1,5c0.1,0.3,0.1,0.5,0.1,0.8C69.6,52.7,69,54,68.1,55c-0.2,0.5-0.4,1.1-0.6,1.7c-0.2,0.8-0.5,1.5-1,2.2
		c-0.5,0.8-1.1,1.5-1.9,2.1c-1.1,0.6-2.3,0.9-3.5,1l0.4,6.2c0,1-0.1,2.1-0.2,3.1c-0.2,2.3,0,1.9-2.6,1.8c-1.5-0.1-3-0.3-4.5-0.6
		c-2.2-0.2-4.9-0.4-5.2-0.3c-0.1,0.1-0.3,0.1-0.5,0.1h-1.2c-0.7,0-1.4,0.1-2.2,0.2c-1,0.2-1.3-0.2-1.3-0.2h-0.4
		c-0.6-0.1-1.4,0-1.5-0.2l-0.1-0.2c0,0-0.4-0.3-0.1-0.5l0.3-0.2c-0.1-0.1-0.2-0.2-0.2-0.4c-0.2,0-0.3-0.1-0.4-0.2s0.2-0.6,0.5-0.7
		c0.5-0.2,1-0.3,1.5-0.4c0.5-0.1,1.1-0.1,1.6,0l0,0c0.2-0.2,0.4-0.3,0.7-0.4c0.3,0,1.4-0.2,2.2-0.2l0,0c0.5-0.1,0.9-0.2,1.4-0.2
		c0.3-0.1,4.6-0.5,4.7-0.5l0,0l0.7-0.2l0,0c0.8-0.4,2-1,2-1s0-0.2,0-0.8c0-0.7-0.2-1.3-0.4-1.9c-1.6-1-2.1-4.2-2.1-4.2h-0.4
		c-0.4,0-3.4-0.3-3.7-0.3c-0.8,0.2-1.4,0.6-2,1.1c-0.6,0.4-1.3-1.1-1.3-1.1l-0.5-0.3L46,59.2c-0.1-0.2-0.2-0.5-0.3-0.7
		c0,0-1,0.3-1,0c-0.1-0.5-0.1-1-0.1-1.6c0.1-0.7-0.4-0.7-0.8-1.1s-0.5-3-0.5-3l0.3-1c0.2-0.2,0.4-0.5,0.5-0.7
		c0.3-0.4,0.8-0.7,1.2-0.9c0.4-0.3,0.8-0.6,1.3-0.9c1.2-0.4,2.4-0.6,3.7-0.5c1.3,0,2.7,2.2,3,2.6s0.8,1.3,0.8,1.3s0.7-0.4,1.2-0.8
		s2.7-1.9,2.7-1.9l1.5-1c0.1-0.3,0.1-0.6,0-0.9l0,0h-0.6c-0.4,0-0.8-0.1-1.2-0.3c0,0-3.3-1.2-4.5-2.7s-2-1.9-4.8-2
		s-8.9-1.4-11.8-1.2s-3.8,1-7,0.1s-8.9-2.3-9.9-2.3c-0.8-0.1-1.5,0.1-2.2,0.4c-0.5,0.3-1.4,0.3-2.4-0.7c-1.2-1-2.6-1.6-4.2-1.7
		c-1-0.1-1.5-0.6-1.5-0.8s-1.4-0.2-1-1.2c0.5-0.4,1.1-0.7,1.7-0.6c2,0.3,4.1,0.5,6.2,0.6c0.8-0.2,1.6-0.2,2.4,0
		c3.6,0.8,7.3,1.2,11,1.4c2.9-0.2,5.8-0.5,8.6-1c2.4-0.3,10.3-0.8,12.9-0.7s4.9,0.3,4.9,0.3c2.1-1.9,4.9-2.9,7.8-2.6
		c0.5,0,0.9,0.1,1.4,0.1c1.7,0.1,3.4,0.4,5.1,0.8c0,0-1.6-2.7-1.9-3.2c-0.7-1.4-1.4-2.8-2-4.3c-0.3-0.8-0.8-1.6-1.2-2.4
		c-0.2-0.3-0.5-0.6-0.7-0.8c-0.4-0.2-0.8-0.3-1.3-0.4c-0.7-0.2-0.3-1.3-0.2-2c0-1.3-0.1-2.6-0.4-3.8c-0.2-0.8-0.6-2.1-0.7-2.4
		s0-1,0.3-1.1s1.1,0.5,1.1,0.5l1,1c0.6,0.6,3.4,5.5,3.4,5.5c0.8,1.2,1.6,2.4,2.3,3.7c0.8,1.6,4.5,5.5,6.5,7.8S79,35.4,78.7,36.2z"/>
	<g class="st0">
		<path class="st1" d="M392.7,13.5c0.7,0,1.2,0.4,1.2,1.2v57.2c0,0.7-0.4,1.2-1.2,1.2h-7.4c-0.7,0-1.1-0.3-1.3-1l-11.4-31.8h-0.4
			v31.6c0,0.7-0.4,1.2-1.2,1.2h-7.7c-0.7,0-1.2-0.4-1.2-1.2V14.7c0-0.7,0.4-1.2,1.2-1.2h7.4c0.7,0,1.1,0.3,1.3,1l11.3,31.7h0.4V14.7
			c0-0.7,0.4-1.2,1.2-1.2H392.7z"/>
		<path class="st1" d="M431,22.2c0,0.7-0.3,1.3-1.2,1.3h-18.6v14.9h14.2c0.7,0,1.2,0.4,1.2,1.3V47c0,0.8-0.4,1.3-1.2,1.3h-14.2v15
			h18.6c0.9,0,1.2,0.4,1.2,1.2v7.4c0,0.7-0.3,1.2-1.2,1.2h-27.4c-0.7,0-1.1-0.4-1.1-1.2V14.7c0-0.7,0.4-1.2,1.1-1.2h27.4
			c0.9,0,1.2,0.4,1.2,1.2V22.2z"/>
		<path class="st1" d="M465.6,13.5c0.8,0,1.2,0.4,1.2,1.2v7.4c0,0.7-0.4,1.2-1.2,1.2H457v48.6c0,0.8-0.4,1.2-1.2,1.2H448
			c-0.7,0-1.2-0.4-1.2-1.2V23.3h-8.6c-0.7,0-1.2-0.4-1.2-1.2v-7.4c0-0.7,0.4-1.2,1.2-1.2H465.6z"/>
	</g>
</g>
</svg>
