<?xml version="1.0" encoding="utf-8"?>
<!-- Generator: Adobe Illustrator 21.0.0, SVG Export Plug-In . SVG Version: 6.00 Build 0)  -->
<svg version="1.1" id="Layer_1" xmlns="http://www.w3.org/2000/svg" xmlns:xlink="http://www.w3.org/1999/xlink" x="0px" y="0px"
	 viewBox="0 0 120 237" enable-background="new 0 0 120 237" xml:space="preserve">
<g>
	<rect fill="#F54E4E" width="120" height="237"/>
</g>
<g>
	<g opacity="0.2">
		<path fill="#FFFFFF" d="M30,33.5L56.5,60L30,86.5L3.5,60L30,33.5 M30,32.1L2.1,60L30,87.9L57.9,60L30,32.1L30,32.1z"/>
	</g>
	<g opacity="0.2">
		<path fill="#FFFFFF" d="M30,44.1L45.9,60L30,75.9L14.1,60L30,44.1 M30,42.7L12.7,60L30,77.3L47.3,60L30,42.7L30,42.7z"/>
	</g>
	<g opacity="0.2">
		<path fill="#FFFFFF" d="M30,54.8l5.2,5.2L30,65.2L24.8,60L30,54.8 M30,53.4L23.4,60l6.6,6.6l6.6-6.6L30,53.4L30,53.4z"/>
	</g>
</g>
<g>
	<g opacity="0.2">
		<path fill="#FFFFFF" d="M90,33.5L116.5,60L90,86.5L63.5,60L90,33.5 M90,32.1L62.1,60L90,87.9L117.9,60L90,32.1L90,32.1z"/>
	</g>
	<g opacity="0.2">
		<path fill="#FFFFFF" d="M90,44.1L105.9,60L90,75.9L74.1,60L90,44.1 M90,42.7L72.7,60L90,77.3L107.3,60L90,42.7L90,42.7z"/>
	</g>
	<g opacity="0.2">
		<path fill="#FFFFFF" d="M90,54.8l5.2,5.2L90,65.2L84.8,60L90,54.8 M90,53.4L83.4,60l6.6,6.6l6.6-6.6L90,53.4L90,53.4z"/>
	</g>
</g>
<g>
	<g opacity="0.2">
		<path fill="#FFFFFF" d="M90,34.2L115.8,60L90,85.8L64.2,60L90,34.2 M90,32.1L62.1,60L90,87.9L117.9,60L90,32.1L90,32.1z"/>
	</g>
	<g opacity="0.2">
		<path fill="#FFFFFF" d="M90,44.8L105.2,60L90,75.2L74.8,60L90,44.8 M90,42.7L72.7,60L90,77.3L107.3,60L90,42.7L90,42.7z"/>
	</g>
	<g opacity="0.2">
		<path fill="#FFFFFF" d="M90,55.5l4.5,4.5L90,64.5L85.5,60L90,55.5 M90,53.4L83.4,60l6.6,6.6l6.6-6.6L90,53.4L90,53.4z"/>
	</g>
</g>
<g>
	<g opacity="0.2">
		<path fill="#FFFFFF" d="M60,3.5L86.5,30L60,56.5L33.5,30L60,3.5 M60,2.1L32.1,30L60,57.9L87.9,30L60,2.1L60,2.1z"/>
	</g>
	<g opacity="0.2">
		<path fill="#FFFFFF" d="M60,14.1L75.9,30L60,45.9L44.1,30L60,14.1 M60,12.7L42.7,30L60,47.3L77.3,30L60,12.7L60,12.7z"/>
	</g>
	<g opacity="0.2">
		<path fill="#FFFFFF" d="M60,24.8l5.2,5.2L60,35.2L54.8,30L60,24.8 M60,23.4L53.4,30l6.6,6.6l6.6-6.6L60,23.4L60,23.4z"/>
	</g>
</g>
<g>
	<g opacity="0.2">
		<path fill="#FFFFFF" d="M60,63.5L86.5,90L60,116.5L33.5,90L60,63.5 M60,62.1L32.1,90L60,117.9L87.9,90L60,62.1L60,62.1z"/>
	</g>
	<g opacity="0.2">
		<path fill="#FFFFFF" d="M60,74.1L75.9,90L60,105.9L44.1,90L60,74.1 M60,72.7L42.7,90L60,107.3L77.3,90L60,72.7L60,72.7z"/>
	</g>
	<g opacity="0.2">
		<path fill="#FFFFFF" d="M60,84.8l5.2,5.2L60,95.2L54.8,90L60,84.8 M60,83.4L53.4,90l6.6,6.6l6.6-6.6L60,83.4L60,83.4z"/>
	</g>
</g>
<g>
	<g opacity="0.2">
		<path fill="#FFFFFF" d="M30,151.5L56.5,178L30,204.5L3.5,178L30,151.5 M30,150.1L2.1,178L30,205.9L57.9,178L30,150.1L30,150.1z"/>
	</g>
	<g opacity="0.2">
		<path fill="#FFFFFF" d="M30,162.1L45.9,178L30,193.9L14.1,178L30,162.1 M30,160.7L12.7,178L30,195.3L47.3,178L30,160.7L30,160.7z"
			/>
	</g>
	<g opacity="0.2">
		<path fill="#FFFFFF" d="M30,172.8l5.2,5.2l-5.2,5.2l-5.2-5.2L30,172.8 M30,171.4l-6.6,6.6l6.6,6.6l6.6-6.6L30,171.4L30,171.4z"/>
	</g>
</g>
<g>
	<g opacity="0.2">
		<path fill="#FFFFFF" d="M30,151.5L56.5,178L30,204.5L3.5,178L30,151.5 M30,150.1L2.1,178L30,205.9L57.9,178L30,150.1L30,150.1z"/>
	</g>
	<g opacity="0.2">
		<path fill="#FFFFFF" d="M30,162.1L45.9,178L30,193.9L14.1,178L30,162.1 M30,160.7L12.7,178L30,195.3L47.3,178L30,160.7L30,160.7z"
			/>
	</g>
	<g opacity="0.2">
		<path fill="#FFFFFF" d="M30,172.8l5.2,5.2l-5.2,5.2l-5.2-5.2L30,172.8 M30,171.4l-6.6,6.6l6.6,6.6l6.6-6.6L30,171.4L30,171.4z"/>
	</g>
</g>
<g>
	<g opacity="0.2">
		<path fill="#FFFFFF" d="M90,151.5l26.5,26.5L90,204.5L63.5,178L90,151.5 M90,150.1L62.1,178L90,205.9l27.9-27.9L90,150.1L90,150.1
			z"/>
	</g>
	<g opacity="0.2">
		<path fill="#FFFFFF" d="M90,162.1l15.9,15.9L90,193.9L74.1,178L90,162.1 M90,160.7L72.7,178L90,195.3l17.3-17.3L90,160.7L90,160.7
			z"/>
	</g>
	<g opacity="0.2">
		<path fill="#FFFFFF" d="M90,172.8l5.2,5.2l-5.2,5.2l-5.2-5.2L90,172.8 M90,171.4l-6.6,6.6l6.6,6.6l6.6-6.6L90,171.4L90,171.4z"/>
	</g>
</g>
<g>
	<g opacity="0.2">
		<path fill="#FFFFFF" d="M60,121.5L86.5,148L60,174.5L33.5,148L60,121.5 M60,120.1L32.1,148L60,175.9L87.9,148L60,120.1L60,120.1z"
			/>
	</g>
	<g opacity="0.2">
		<path fill="#FFFFFF" d="M60,132.1L75.9,148L60,163.9L44.1,148L60,132.1 M60,130.7L42.7,148L60,165.3L77.3,148L60,130.7L60,130.7z"
			/>
	</g>
	<g opacity="0.2">
		<path fill="#FFFFFF" d="M60,142.8l5.2,5.2l-5.2,5.2l-5.2-5.2L60,142.8 M60,141.4l-6.6,6.6l6.6,6.6l6.6-6.6L60,141.4L60,141.4z"/>
	</g>
</g>
<g>
	<g opacity="0.2">
		<path fill="#FFFFFF" d="M60,181.5L86.5,208L60,234.5L33.5,208L60,181.5 M60,180.1L32.1,208L60,235.9L87.9,208L60,180.1L60,180.1z"
			/>
	</g>
	<g opacity="0.2">
		<path fill="#FFFFFF" d="M60,192.1L75.9,208L60,223.9L44.1,208L60,192.1 M60,190.7L42.7,208L60,225.3L77.3,208L60,190.7L60,190.7z"
			/>
	</g>
	<g opacity="0.2">
		<path fill="#FFFFFF" d="M60,202.8l5.2,5.2l-5.2,5.2l-5.2-5.2L60,202.8 M60,201.4l-6.6,6.6l6.6,6.6l6.6-6.6L60,201.4L60,201.4z"/>
	</g>
</g>
</svg>
