<?xml version="1.0" encoding="utf-8"?>
<!-- Generator: Adobe Illustrator 21.0.0, SVG Export Plug-In . SVG Version: 6.00 Build 0)  -->
<svg version="1.1" id="Layer_1" xmlns="http://www.w3.org/2000/svg" xmlns:xlink="http://www.w3.org/1999/xlink" x="0px" y="0px"
	 viewBox="0 0 1016 212.1" style="enable-background:new 0 0 1016 212.1;" xml:space="preserve">
<style type="text/css">
	.st0{enable-background:new    ;}
	.st1{fill:#231F20;}
	.st2{fill:#EC1C24;}
	.st3{fill:#FFFFFF;}
	.st4{fill:#333333;}
</style>
<g class="st0">
	<path class="st1" d="M280.1,137.1c-1.5,0-2.3-0.8-2.6-2.3l-4.5-23.6h-28.7l-4.4,23.6c-0.3,1.5-1.1,2.3-2.6,2.3h-17.3
		c-1.8,0-2.6-1-2.1-2.7l26.8-124.1c0.3-1.6,1.3-2.3,2.7-2.3H270c1.5,0,2.4,0.6,2.7,2.3l26.8,124.1c0.3,1.8-0.3,2.7-2.3,2.7H280.1z
		 M258.7,36.3l-10.3,56.3H269L258.7,36.3z"/>
</g>
<g class="st0">
	<path class="st1" d="M375.5,48.7c0,1.6-1,2.6-2.6,2.6h-16.1c-1.8,0-2.6-1-2.6-2.6V35.8c0-4.2-2.3-6.5-6.5-6.5h-8.4
		c-4.4,0-6.5,2.3-6.5,6.5v73.6c0,4.4,2.3,6.5,6.5,6.5h8.4c4.2,0,6.5-2.1,6.5-6.5V96.5c0-1.6,0.8-2.6,2.6-2.6h16.1
		c1.6,0,2.6,1,2.6,2.6v17.4c0,15.2-8.2,23.2-23.2,23.2h-18.1c-15.2,0-23.4-8.1-23.4-23.2V31.3c0-15.2,8.2-23.2,23.4-23.2h18.1
		c15,0,23.2,8.1,23.2,23.2V48.7z"/>
</g>
<g class="st0">
	<path class="st1" d="M445.5,8.1c1.8,0,2.6,1,2.6,2.6v16.1c0,1.6-0.8,2.6-2.6,2.6h-18.7v105.2c0,1.8-0.8,2.6-2.6,2.6h-16.8
		c-1.6,0-2.6-0.8-2.6-2.6V29.4h-18.7c-1.6,0-2.6-1-2.6-2.6V10.6c0-1.6,1-2.6,2.6-2.6H445.5z"/>
</g>
<g class="st0">
	<path class="st1" d="M480.3,8.1c1.6,0,2.6,1,2.6,2.6v123.9c0,1.6-1,2.6-2.6,2.6h-16.8c-1.8,0-2.6-1-2.6-2.6V10.6
		c0-1.6,0.8-2.6,2.6-2.6H480.3z"/>
</g>
<g class="st0">
	<path class="st1" d="M567.5,8.1c2.4,0,3.4,1.3,2.9,3.5l-27.3,122.6c-0.5,1.9-1.6,2.9-3.5,2.9h-16.1c-1.9,0-3.1-1-3.5-2.9
		L492.8,11.6c-0.5-2.3,0.5-3.5,2.9-3.5H511c1.9,0,3.1,1,3.5,2.9l16.9,86.5L548.6,11c0.5-1.9,1.6-2.9,3.5-2.9H567.5z"/>
	<path class="st1" d="M602.8,8.1c1.6,0,2.6,1,2.6,2.6v123.9c0,1.6-1,2.6-2.6,2.6H586c-1.8,0-2.6-1-2.6-2.6V10.6
		c0-1.6,0.8-2.6,2.6-2.6H602.8z"/>
</g>
<g class="st0">
	<path class="st1" d="M680.2,8.1c1.8,0,2.6,1,2.6,2.6v16.1c0,1.6-0.8,2.6-2.6,2.6h-18.7v105.2c0,1.8-0.8,2.6-2.6,2.6h-16.8
		c-1.6,0-2.6-0.8-2.6-2.6V29.4h-18.7c-1.6,0-2.6-1-2.6-2.6V10.6c0-1.6,1-2.6,2.6-2.6H680.2z"/>
</g>
<g class="st0">
	<path class="st1" d="M768,8.1c2.4,0,3.5,1.5,2.6,3.7L741,83.6v50.3c0,2.1-1.1,3.2-3.2,3.2h-15.5c-2.1,0-3.2-1.1-3.2-3.2V83.6
		l-29.5-71.8c-1-2.3,0.2-3.7,2.6-3.7h16.1c1.9,0,3.1,0.8,3.7,2.6l18.1,46.3l18.1-46.3c0.6-1.8,1.8-2.6,3.7-2.6H768z"/>
</g>
<g>
	<path class="st2" d="M9.4,0.9h170.2c5.2,0,9.4,4.2,9.4,9.4v170.2c0,5.2-4.2,9.4-9.4,9.4H9.4c-5.2,0-9.4-4.2-9.4-9.4V10.3
		C0,5.1,4.2,0.9,9.4,0.9z"/>
	<path class="st3" d="M166.4,69.3c-4.2-5-12.4-13.4-14.1-16.9c-1.5-2.8-3.1-5.5-4.9-8.1c0,0-6-10.7-7.3-11.9l-2.1-2.1
		c0,0-1.7-1.3-2.5-1.1c-0.8,0.2-0.8,1.9-0.7,2.4c0.1,0.5,0.9,3.4,1.4,5.1c0.5,1.7,1.1,6.8,0.9,8.4c-0.3,1.6-1,4,0.5,4.4
		c0.9,0.2,1.9,0.6,2.8,1c0.6,0.5,1.2,1.1,1.6,1.8c0.4,0.8,2.3,3.7,2.7,5.1c1.3,3.2,2.7,6.4,4.3,9.4c0.7,1.1,4.2,7,4.2,7
		c-3.6-0.9-7.3-1.5-11.1-1.8c-1,0-2,0-3-0.1c-6.2-0.6-12.4,1.4-17,5.6c0,0-5-0.5-10.8-0.6c-5.7-0.2-23,0.9-28.2,1.6
		c-5.1,0.7-12.4,2-18.7,2.2c-6.4,0.2-21.5-2.3-24-3c-1.7-0.5-3.5-0.5-5.2,0c-4.5-0.2-9-0.6-13.5-1.4c-1.8-0.5-3.8,1.4-3.8,1.4
		C17,79.9,20,79.7,20,80.3s1.1,1.7,3.2,1.8s7,1.5,9.1,3.8c2.1,2.3,4.1,2.3,5.2,1.5c1.1-0.8,2.6-0.9,4.9-0.9s14.7,3.2,21.7,5
		c7,1.9,9.1,0,15.3-0.3C85.5,91,98.9,93.8,105,94c6.1,0.2,7.9,1.1,10.3,4.2c2.4,3.2,9.7,5.9,9.7,5.9c0.8,0.5,1.7,0.7,2.6,0.8h1
		l0.1,0.1c0.2,0.4,0,1.9,0,1.9l-3.2,2.1c0,0-4.7,3.3-5.8,4.1c-1.1,0.8-2.6,1.7-2.6,1.7s-1-1.9-1.6-2.8c-0.6-0.8-3.5-5.6-6.4-5.6
		c-2.9,0-6.2,0.2-7.9,1.2c-1,0.5-1.9,1.2-2.7,1.9c-1,0.5-1.9,1.2-2.6,2c-0.3,0.5-0.7,1.1-1.1,1.5l-0.7,2.3c0,0,0.2,5.6,1.1,6.5
		c0.9,0.9,2,0.9,1.8,2.4c-0.1,1.1,0,2.3,0.2,3.4c0.1,0.7,2.2,0,2.2,0c0.1,0.5,0.3,1,0.6,1.5l0.3,0.4l1.1,0.7c0,0,1.6,3.3,2.9,2.4
		c1.3-0.9,3.7-2.4,4.5-2.3c0.7,0.1,7,0.7,7.9,0.7h0.9c0,0,1.1,7,4.7,9.3c0.5,1.4,0.8,2.8,0.9,4.3c0.1,1.3,0.1,1.7,0.1,1.7
		s-2.6,1.4-4.5,2.2l0,0l-1.6,0.6h0.3c-0.2,0-9.6,0.9-10.3,1.2c-1.1,0.1-2.1,0.2-3.1,0.5l0,0c-1.8,0.2-4.2,0.5-4.9,0.5
		c-0.6,0.1-1.1,0.5-1.5,0.9l0,0c-0.8-0.3-3.1,0.1-3.6,0c-1.2,0.2-2.3,0.4-3.4,0.8c-0.7,0.2-1.3,1-1.2,1.5c0.1,0.2,0.4,0.3,0.8,0.3
		c0.1,0.3,0.3,0.6,0.6,0.8l-0.7,0.4c-0.7,0.4,0.3,1,0.3,1l0.3,0.5c0.3,0.5,2,0.4,3.4,0.5c0.2,0,0.7,0,1,0c0,0,0.7,0.9,2.9,0.5
		c1.6-0.2,3.1-0.4,4.7-0.5c1.2,0,2.2,0,2.7-0.1c0.4,0,0.7-0.1,1.1-0.3l0,0c0.6-0.2,6.4,0.5,11.3,0.8c3.2,0.6,6.4,1.1,9.7,1.3
		c5.6,0.3,5.2,1,5.6-3.9l0,0c0.3-2.3,0.5-4.5,0.5-6.8l-0.9-13.5c1.5-0.1,5.9-0.7,7.7-2.2c1.6-1.3,3-2.8,4-4.6c1-1.5,1.8-3.1,2.3-4.8
		c0.4-1.3,0.8-2.5,1.2-3.7c1.3-1.4,3.7-5,3.9-7.7c0-0.6-0.1-1.2-0.2-1.8c-0.1-3.8-0.9-7.5-2.2-11c-1.5-2.9-3.4-5.6-5.5-8.1l-0.9-2.3
		c5.7-0.9,11.3-2.2,16.8-3.9c8.3-2.7,10.7-4.6,11.2-6.4C171.5,77.3,170.6,74.4,166.4,69.3z"/>
</g>
<g class="st0">
	<path class="st2" d="M850.6,8.1c1.6,0,2.6,1,2.6,2.6v123.9c0,1.6-1,2.6-2.6,2.6h-16c-1.5,0-2.4-0.6-2.9-2.1L807,66.1h-0.8v68.4
		c0,1.6-0.8,2.6-2.6,2.6h-16.8c-1.6,0-2.6-1-2.6-2.6V10.6c0-1.6,1-2.6,2.6-2.6h16c1.5,0,2.4,0.6,2.9,2.1l24.5,68.6h1V10.6
		c0-1.6,0.8-2.6,2.6-2.6H850.6z"/>
	<path class="st2" d="M933.7,26.8c0,1.6-0.6,2.7-2.6,2.7h-40.3v32.3h30.8c1.6,0,2.6,1,2.6,2.7v16c0,1.8-1,2.7-2.6,2.7h-30.8v32.6
		h40.3c1.9,0,2.6,0.8,2.6,2.6v16.1c0,1.6-0.6,2.6-2.6,2.6h-59.4c-1.5,0-2.4-1-2.4-2.6V10.6c0-1.6,1-2.6,2.4-2.6h59.4
		c1.9,0,2.6,1,2.6,2.6V26.8z"/>
	<path class="st2" d="M1008.5,8.1c1.8,0,2.6,1,2.6,2.6v16.1c0,1.6-0.8,2.6-2.6,2.6h-18.7v105.2c0,1.8-0.8,2.6-2.6,2.6h-16.8
		c-1.6,0-2.6-0.8-2.6-2.6V29.4h-18.7c-1.6,0-2.6-1-2.6-2.6V10.6c0-1.6,1-2.6,2.6-2.6H1008.5z"/>
</g>
<g>
	<path class="st4" d="M222,195.5h13.3v3.7h-17.6v-34h4.3V195.5z"/>
	<path class="st4" d="M252.8,199.1c-0.2-0.5-0.4-1.5-0.5-2.8c-1.5,2.1-3.3,3.2-5.6,3.2c-2.3,0-4.1-0.6-5.4-1.9
		c-1.3-1.3-1.9-3.1-1.9-5.4c0-2.6,0.9-4.6,2.6-6.1s4.1-2.3,7.2-2.3h3v-2.7c0-1.5-0.3-2.6-1-3.2c-0.7-0.6-1.7-1-3.1-1
		c-1.2,0-2.3,0.4-3,1.1s-1.2,1.7-1.2,2.8h-4.1c0-1.3,0.4-2.5,1.1-3.7c0.8-1.2,1.8-2.1,3.1-2.8c1.3-0.7,2.7-1,4.3-1
		c2.6,0,4.5,0.6,5.9,1.9c1.3,1.3,2,3.2,2.1,5.6v12.7c0,1.9,0.3,3.6,0.8,5.1v0.4H252.8z M247.3,195.8c1,0,2-0.3,2.9-0.8
		c0.9-0.6,1.6-1.3,2-2.1v-6h-2.3c-2,0-3.5,0.5-4.6,1.3c-1.1,0.8-1.7,2-1.7,3.6c0,1.4,0.3,2.5,0.9,3.1
		C244.9,195.5,245.9,195.8,247.3,195.8z"/>
	<path class="st4" d="M273.1,177.8c-0.6-0.1-1.2-0.2-1.9-0.2c-2.1,0-3.6,1.2-4.4,3.5v18h-4.1v-25.2h4l0.1,2.6c1.1-2,2.7-3,4.7-3
		c0.7,0,1.2,0.1,1.6,0.3L273.1,177.8z"/>
	<path class="st4" d="M275.9,185.4c0-3.9,0.7-6.9,2.1-8.9c1.4-2,3.5-3,6.3-3c2.6,0,4.5,1.1,5.9,3.3l0.2-2.8h3.7v25.5
		c0,3.1-0.8,5.5-2.4,7.2c-1.6,1.7-3.8,2.5-6.7,2.5c-1.2,0-2.6-0.3-4.2-0.9s-2.7-1.4-3.5-2.3l1.7-2.8c1.7,1.7,3.6,2.5,5.7,2.5
		c3.4,0,5.2-1.9,5.3-5.6v-3.3c-1.3,2-3.2,3-5.7,3c-2.6,0-4.6-1-6.1-3s-2.2-4.8-2.3-8.5V185.4z M280,187.7c0,2.8,0.4,4.9,1.2,6.2
		c0.8,1.3,2.2,2,4.1,2c2.1,0,3.6-1,4.6-3.1v-12.6c-1.1-2.1-2.6-3.1-4.6-3.1c-1.9,0-3.3,0.7-4.1,2c-0.8,1.3-1.3,3.4-1.3,6.1V187.7z"
		/>
	<path class="st4" d="M309.3,199.6c-3.1,0-5.6-0.9-7.2-2.8c-1.7-1.9-2.5-4.6-2.6-8.2v-3.1c0-3.8,0.8-6.7,2.5-8.9
		c1.6-2.1,3.9-3.2,6.9-3.2c3,0,5.2,0.9,6.6,2.8c1.5,1.9,2.2,4.8,2.2,8.8v2.7h-14.1v0.6c0,2.7,0.5,4.7,1.5,5.9c1,1.2,2.5,1.8,4.4,1.8
		c1.2,0,2.3-0.2,3.2-0.7c0.9-0.5,1.8-1.2,2.6-2.2l2.1,2.6C315.7,198.3,313,199.6,309.3,199.6z M308.8,177c-1.7,0-3,0.6-3.8,1.8
		c-0.8,1.2-1.3,3-1.4,5.5h9.9v-0.6c-0.1-2.4-0.5-4.1-1.3-5.1C311.5,177.5,310.4,177,308.8,177z"/>
	<path class="st4" d="M349,190.6c0-1.7-0.5-3-1.4-3.9s-2.6-1.8-5-2.6c-2.4-0.9-4.2-1.8-5.5-2.7c-1.3-0.9-2.2-2-2.8-3.2
		c-0.6-1.2-0.9-2.6-0.9-4.1c0-2.7,0.9-4.9,2.7-6.6s4.1-2.6,7.1-2.6c2,0,3.8,0.4,5.3,1.3s2.8,2.1,3.6,3.7c0.8,1.6,1.3,3.3,1.3,5.2
		H349c0-2.1-0.5-3.7-1.5-4.9c-1-1.2-2.5-1.7-4.4-1.7c-1.7,0-3.1,0.5-4,1.4c-0.9,1-1.4,2.3-1.4,4.1c0,1.4,0.5,2.6,1.5,3.6
		c1,1,2.6,1.8,4.8,2.6c3.3,1.1,5.7,2.5,7.2,4.1s2.2,3.7,2.2,6.3c0,2.8-0.9,5-2.7,6.6c-1.8,1.7-4.2,2.5-7.3,2.5c-2,0-3.8-0.4-5.5-1.3
		c-1.7-0.9-3-2.1-3.9-3.6s-1.4-3.4-1.4-5.4h4.3c0,2.1,0.6,3.7,1.8,4.9c1.2,1.2,2.8,1.7,4.8,1.7c1.9,0,3.3-0.5,4.2-1.4
		C348.5,193.5,349,192.2,349,190.6z"/>
	<path class="st4" d="M367.1,196.1c1.4,0,2.5-0.4,3.3-1.3c0.8-0.8,1.3-2.1,1.4-3.6h3.9c-0.1,2.4-1,4.4-2.6,6s-3.6,2.4-6,2.4
		c-3.1,0-5.5-1-7.1-3c-1.6-2-2.5-4.9-2.5-8.8v-2.8c0-3.8,0.8-6.7,2.4-8.7c1.6-2,4-3,7.1-3c2.6,0,4.6,0.8,6.1,2.4
		c1.5,1.6,2.3,3.9,2.4,6.7h-3.9c-0.1-1.9-0.5-3.3-1.3-4.2c-0.8-0.9-1.9-1.4-3.3-1.4c-1.8,0-3.2,0.6-4.1,1.8
		c-0.9,1.2-1.3,3.2-1.4,5.9v3.2c0,3,0.4,5.1,1.3,6.3C363.8,195.5,365.2,196.1,367.1,196.1z"/>
	<path class="st4" d="M393.4,199.1c-0.2-0.5-0.4-1.5-0.5-2.8c-1.5,2.1-3.3,3.2-5.6,3.2c-2.3,0-4.1-0.6-5.4-1.9
		c-1.3-1.3-1.9-3.1-1.9-5.4c0-2.6,0.9-4.6,2.6-6.1s4.1-2.3,7.2-2.3h3v-2.7c0-1.5-0.3-2.6-1-3.2c-0.7-0.6-1.7-1-3.1-1
		c-1.2,0-2.3,0.4-3,1.1s-1.2,1.7-1.2,2.8h-4.1c0-1.3,0.4-2.5,1.1-3.7c0.8-1.2,1.8-2.1,3.1-2.8c1.3-0.7,2.7-1,4.3-1
		c2.6,0,4.5,0.6,5.9,1.9c1.3,1.3,2,3.2,2.1,5.6v12.7c0,1.9,0.3,3.6,0.8,5.1v0.4H393.4z M387.9,195.8c1,0,2-0.3,2.9-0.8
		c0.9-0.6,1.6-1.3,2-2.1v-6h-2.3c-2,0-3.5,0.5-4.6,1.3c-1.1,0.8-1.7,2-1.7,3.6c0,1.4,0.3,2.5,0.9,3.1
		C385.5,195.5,386.5,195.8,387.9,195.8z"/>
	<path class="st4" d="M407.7,199.1h-4.1v-35.8h4.1V199.1z"/>
	<path class="st4" d="M423.2,199.6c-3.1,0-5.6-0.9-7.2-2.8c-1.7-1.9-2.5-4.6-2.6-8.2v-3.1c0-3.8,0.8-6.7,2.5-8.9
		c1.6-2.1,3.9-3.2,6.9-3.2c3,0,5.2,0.9,6.6,2.8c1.5,1.9,2.2,4.8,2.2,8.8v2.7h-14.1v0.6c0,2.7,0.5,4.7,1.5,5.9c1,1.2,2.5,1.8,4.4,1.8
		c1.2,0,2.3-0.2,3.2-0.7c0.9-0.5,1.8-1.2,2.6-2.2l2.1,2.6C429.6,198.3,426.9,199.6,423.2,199.6z M422.7,177c-1.7,0-3,0.6-3.8,1.8
		c-0.8,1.2-1.3,3-1.4,5.5h9.9v-0.6c-0.1-2.4-0.5-4.1-1.3-5.1C425.4,177.5,424.3,177,422.7,177z"/>
	<path class="st4" d="M463.9,190.2h-11.5l-2.6,8.9h-4.4l10.9-34h3.7l11,34h-4.4L463.9,190.2z M453.6,186.6h9.3l-4.6-15.4
		L453.6,186.6z"/>
	<path class="st4" d="M483.8,196.1c1.4,0,2.5-0.4,3.3-1.3c0.8-0.8,1.3-2.1,1.4-3.6h3.9c-0.1,2.4-1,4.4-2.6,6s-3.6,2.4-6,2.4
		c-3.1,0-5.5-1-7.1-3c-1.6-2-2.5-4.9-2.5-8.8v-2.8c0-3.8,0.8-6.7,2.4-8.7c1.6-2,4-3,7.1-3c2.6,0,4.6,0.8,6.1,2.4
		c1.5,1.6,2.3,3.9,2.4,6.7h-3.9c-0.1-1.9-0.5-3.3-1.3-4.2c-0.8-0.9-1.9-1.4-3.3-1.4c-1.8,0-3.2,0.6-4.1,1.8
		c-0.9,1.2-1.3,3.2-1.4,5.9v3.2c0,3,0.4,5.1,1.3,6.3C480.5,195.5,481.9,196.1,483.8,196.1z"/>
	<path class="st4" d="M502.5,167.8v6.1h3.8v3.3h-3.8v15.7c0,1,0.2,1.8,0.5,2.3c0.3,0.5,0.9,0.8,1.7,0.8c0.5,0,1.1-0.1,1.7-0.3l0,3.5
		c-0.9,0.3-1.9,0.5-2.9,0.5c-1.6,0-2.9-0.6-3.7-1.7c-0.9-1.2-1.3-2.8-1.3-4.9v-15.7h-3.8v-3.3h3.8v-6.1H502.5z"/>
	<path class="st4" d="M516,167.2c0,0.7-0.2,1.3-0.6,1.7c-0.4,0.5-1,0.7-1.8,0.7c-0.8,0-1.4-0.2-1.7-0.7c-0.4-0.5-0.6-1-0.6-1.7
		c0-0.7,0.2-1.3,0.6-1.8c0.4-0.5,1-0.7,1.7-0.7c0.8,0,1.4,0.2,1.8,0.7C515.8,165.9,516,166.5,516,167.2z M515.6,199.1h-4.1v-25.2
		h4.1V199.1z"/>
	<path class="st4" d="M529.3,192.9l4.8-19h4.2l-7.5,25.2h-3.1l-7.6-25.2h4.2L529.3,192.9z"/>
	<path class="st4" d="M547.3,167.2c0,0.7-0.2,1.3-0.6,1.7c-0.4,0.5-1,0.7-1.8,0.7c-0.8,0-1.4-0.2-1.7-0.7c-0.4-0.5-0.6-1-0.6-1.7
		c0-0.7,0.2-1.3,0.6-1.8c0.4-0.5,1-0.7,1.7-0.7c0.8,0,1.4,0.2,1.8,0.7C547.1,165.9,547.3,166.5,547.3,167.2z M547,199.1h-4.1v-25.2
		h4.1V199.1z"/>
	<path class="st4" d="M558.9,167.8v6.1h3.8v3.3h-3.8v15.7c0,1,0.2,1.8,0.5,2.3c0.3,0.5,0.9,0.8,1.7,0.8c0.5,0,1.1-0.1,1.7-0.3l0,3.5
		c-0.9,0.3-1.9,0.5-2.9,0.5c-1.6,0-2.9-0.6-3.7-1.7s-1.3-2.8-1.3-4.9v-15.7h-3.8v-3.3h3.8v-6.1H558.9z"/>
	<path class="st4" d="M574.5,192.3l4.6-18.4h4.4l-8.3,28.8c-0.6,2.2-1.5,3.8-2.6,4.9c-1.1,1.1-2.4,1.7-3.9,1.7
		c-0.6,0-1.3-0.1-2.1-0.4v-3.5l0.9,0.1c1.2,0,2.1-0.3,2.8-0.9c0.7-0.6,1.2-1.6,1.6-2.9l0.8-2.8l-7.4-25h4.5L574.5,192.3z"/>
	<path class="st4" d="M609.3,185.4h-6v13.7H599v-34h9.5c3.3,0,5.8,0.9,7.6,2.6c1.7,1.7,2.6,4.3,2.6,7.6c0,2.1-0.5,3.9-1.4,5.5
		c-0.9,1.6-2.2,2.7-3.9,3.5l6.6,14.4v0.3h-4.6L609.3,185.4z M603.3,181.7h5.2c1.8,0,3.2-0.6,4.3-1.7c1.1-1.2,1.6-2.7,1.6-4.6
		c0-4.4-2-6.5-5.9-6.5h-5.1V181.7z"/>
	<path class="st4" d="M632.8,199.6c-3.1,0-5.6-0.9-7.2-2.8c-1.7-1.9-2.5-4.6-2.6-8.2v-3.1c0-3.8,0.8-6.7,2.5-8.9
		c1.6-2.1,3.9-3.2,6.9-3.2c3,0,5.2,0.9,6.6,2.8c1.5,1.9,2.2,4.8,2.2,8.8v2.7h-14.1v0.6c0,2.7,0.5,4.7,1.5,5.9c1,1.2,2.5,1.8,4.4,1.8
		c1.2,0,2.3-0.2,3.2-0.7c0.9-0.5,1.8-1.2,2.6-2.2l2.1,2.6C639.2,198.3,636.5,199.6,632.8,199.6z M632.3,177c-1.7,0-3,0.6-3.8,1.8
		c-0.8,1.2-1.3,3-1.4,5.5h9.9v-0.6c-0.1-2.4-0.5-4.1-1.3-5.1C635,177.5,633.9,177,632.3,177z"/>
	<path class="st4" d="M654.9,196.1c1.4,0,2.5-0.4,3.3-1.3c0.8-0.8,1.3-2.1,1.4-3.6h3.9c-0.1,2.4-1,4.4-2.6,6c-1.6,1.6-3.6,2.4-6,2.4
		c-3.1,0-5.5-1-7.1-3c-1.6-2-2.5-4.9-2.5-8.8v-2.8c0-3.8,0.8-6.7,2.4-8.7c1.6-2,4-3,7.1-3c2.6,0,4.6,0.8,6.1,2.4
		c1.5,1.6,2.3,3.9,2.4,6.7h-3.9c-0.1-1.9-0.5-3.3-1.3-4.2c-0.8-0.9-1.9-1.4-3.3-1.4c-1.8,0-3.2,0.6-4.1,1.8
		c-0.9,1.2-1.3,3.2-1.4,5.9v3.2c0,3,0.4,5.1,1.3,6.3C651.6,195.5,653,196.1,654.9,196.1z"/>
	<path class="st4" d="M667.3,185.4c0-3.7,0.9-6.6,2.7-8.7c1.8-2.1,4.1-3.2,7.1-3.2s5.3,1,7.1,3.1c1.8,2.1,2.7,4.9,2.7,8.5v2.7
		c0,3.7-0.9,6.5-2.7,8.7s-4.1,3.2-7.1,3.2c-2.9,0-5.3-1-7-3.1c-1.8-2.1-2.7-4.9-2.7-8.4V185.4z M671.5,187.7c0,2.6,0.5,4.6,1.5,6.1
		c1,1.5,2.4,2.2,4.1,2.2c3.6,0,5.5-2.6,5.6-7.9v-2.8c0-2.6-0.5-4.6-1.5-6.1c-1-1.5-2.4-2.2-4.1-2.2c-1.7,0-3.1,0.8-4.1,2.2
		c-1,1.5-1.5,3.5-1.5,6.1V187.7z"/>
	<path class="st4" d="M691.4,185.4c0-3.9,0.7-6.9,2.1-8.9c1.4-2,3.5-3,6.3-3c2.6,0,4.5,1.1,5.9,3.3l0.2-2.8h3.7v25.5
		c0,3.1-0.8,5.5-2.4,7.2c-1.6,1.7-3.8,2.5-6.7,2.5c-1.2,0-2.6-0.3-4.2-0.9s-2.7-1.4-3.5-2.3l1.7-2.8c1.7,1.7,3.6,2.5,5.7,2.5
		c3.4,0,5.2-1.9,5.3-5.6v-3.3c-1.3,2-3.2,3-5.7,3c-2.6,0-4.6-1-6.1-3c-1.5-2-2.2-4.8-2.3-8.5V185.4z M695.5,187.7
		c0,2.8,0.4,4.9,1.2,6.2c0.8,1.3,2.2,2,4.1,2c2.1,0,3.6-1,4.6-3.1v-12.6c-1.1-2.1-2.6-3.1-4.6-3.1c-1.9,0-3.3,0.7-4.1,2
		c-0.8,1.3-1.3,3.4-1.3,6.1V187.7z"/>
	<path class="st4" d="M719.6,173.9l0.1,2.7c1.6-2.1,3.6-3.2,6.1-3.2c4.5,0,6.7,3,6.8,8.9v16.8h-4.1v-16.6c0-2-0.3-3.4-1-4.2
		c-0.7-0.8-1.7-1.2-3-1.2c-1,0-1.9,0.3-2.8,1c-0.8,0.7-1.5,1.6-2,2.7v18.3h-4.1v-25.2H719.6z"/>
	<path class="st4" d="M743.6,167.2c0,0.7-0.2,1.3-0.6,1.7c-0.4,0.5-1,0.7-1.8,0.7c-0.8,0-1.4-0.2-1.7-0.7c-0.4-0.5-0.6-1-0.6-1.7
		c0-0.7,0.2-1.3,0.6-1.8c0.4-0.5,1-0.7,1.7-0.7s1.4,0.2,1.8,0.7C743.4,165.9,743.6,166.5,743.6,167.2z M743.3,199.1h-4.1v-25.2h4.1
		V199.1z"/>
	<path class="st4" d="M755.2,167.8v6.1h3.8v3.3h-3.8v15.7c0,1,0.2,1.8,0.5,2.3c0.3,0.5,0.9,0.8,1.7,0.8c0.5,0,1.1-0.1,1.7-0.3l0,3.5
		c-0.9,0.3-1.9,0.5-2.9,0.5c-1.6,0-2.9-0.6-3.7-1.7c-0.9-1.2-1.3-2.8-1.3-4.9v-15.7h-3.8v-3.3h3.8v-6.1H755.2z"/>
	<path class="st4" d="M768.6,167.2c0,0.7-0.2,1.3-0.6,1.7c-0.4,0.5-1,0.7-1.8,0.7c-0.8,0-1.4-0.2-1.7-0.7c-0.4-0.5-0.6-1-0.6-1.7
		c0-0.7,0.2-1.3,0.6-1.8c0.4-0.5,1-0.7,1.7-0.7s1.4,0.2,1.8,0.7C768.4,165.9,768.6,166.5,768.6,167.2z M768.3,199.1h-4.1v-25.2h4.1
		V199.1z"/>
	<path class="st4" d="M773.9,185.4c0-3.7,0.9-6.6,2.7-8.7c1.8-2.1,4.1-3.2,7.1-3.2s5.3,1,7.1,3.1c1.8,2.1,2.7,4.9,2.7,8.5v2.7
		c0,3.7-0.9,6.5-2.7,8.7s-4.1,3.2-7.1,3.2c-2.9,0-5.3-1-7-3.1c-1.8-2.1-2.7-4.9-2.7-8.4V185.4z M778.1,187.7c0,2.6,0.5,4.6,1.5,6.1
		c1,1.5,2.4,2.2,4.1,2.2c3.6,0,5.5-2.6,5.6-7.9v-2.8c0-2.6-0.5-4.6-1.5-6.1c-1-1.5-2.4-2.2-4.1-2.2c-1.7,0-3.1,0.8-4.1,2.2
		c-1,1.5-1.5,3.5-1.5,6.1V187.7z"/>
	<path class="st4" d="M802.7,173.9l0.1,2.7c1.6-2.1,3.6-3.2,6.1-3.2c4.5,0,6.7,3,6.8,8.9v16.8h-4.1v-16.6c0-2-0.3-3.4-1-4.2
		c-0.7-0.8-1.7-1.2-3-1.2c-1,0-1.9,0.3-2.8,1c-0.8,0.7-1.5,1.6-2,2.7v18.3h-4.1v-25.2H802.7z"/>
	<path class="st4" d="M854.7,188.3c-0.2,3.6-1.2,6.4-3.1,8.4c-1.9,1.9-4.5,2.9-7.9,2.9c-3.4,0-6.1-1.3-8.1-3.9c-2-2.6-3-6.1-3-10.5
		V179c0-4.4,1-7.9,3.1-10.5c2.1-2.6,4.9-3.8,8.4-3.8c3.3,0,5.8,1,7.6,2.9s2.8,4.8,2.9,8.4h-4.3c-0.2-2.8-0.8-4.7-1.7-5.9
		s-2.5-1.8-4.5-1.8c-2.3,0-4.1,0.9-5.3,2.7c-1.2,1.8-1.9,4.5-1.9,8v6.2c0,3.4,0.6,6.1,1.7,7.9c1.2,1.8,2.8,2.8,5.1,2.8
		s3.8-0.6,4.8-1.7c1-1.1,1.6-3.1,1.8-5.9H854.7z"/>
	<path class="st4" d="M864,176.5c1.6-2,3.6-3.1,6-3.1c4.5,0,6.7,3,6.8,8.9v16.8h-4.1v-16.6c0-2-0.3-3.4-1-4.2
		c-0.7-0.8-1.7-1.2-3-1.2c-1,0-1.9,0.3-2.8,1c-0.8,0.7-1.5,1.6-2,2.7v18.3h-4.1v-35.8h4.1V176.5z"/>
	<path class="st4" d="M895.9,199.1c-0.2-0.5-0.4-1.5-0.5-2.8c-1.5,2.1-3.3,3.2-5.6,3.2c-2.3,0-4.1-0.6-5.4-1.9
		c-1.3-1.3-1.9-3.1-1.9-5.4c0-2.6,0.9-4.6,2.6-6.1s4.1-2.3,7.2-2.3h3v-2.7c0-1.5-0.3-2.6-1-3.2c-0.7-0.6-1.7-1-3.1-1
		c-1.2,0-2.3,0.4-3,1.1s-1.2,1.7-1.2,2.8H883c0-1.3,0.4-2.5,1.1-3.7c0.8-1.2,1.8-2.1,3.1-2.8c1.3-0.7,2.7-1,4.3-1
		c2.6,0,4.5,0.6,5.9,1.9c1.3,1.3,2,3.2,2.1,5.6v12.7c0,1.9,0.3,3.6,0.8,5.1v0.4H895.9z M890.4,195.8c1,0,2-0.3,2.9-0.8
		c0.9-0.6,1.6-1.3,2-2.1v-6H893c-2,0-3.5,0.5-4.6,1.3s-1.7,2-1.7,3.6c0,1.4,0.3,2.5,0.9,3.1S889.1,195.8,890.4,195.8z"/>
	<path class="st4" d="M910.3,199.1h-4.1v-35.8h4.1V199.1z"/>
	<path class="st4" d="M921.2,199.1h-4.1v-35.8h4.1V199.1z"/>
	<path class="st4" d="M936.7,199.6c-3.1,0-5.6-0.9-7.2-2.8c-1.7-1.9-2.5-4.6-2.6-8.2v-3.1c0-3.8,0.8-6.7,2.5-8.9
		c1.6-2.1,3.9-3.2,6.9-3.2c3,0,5.2,0.9,6.6,2.8c1.5,1.9,2.2,4.8,2.2,8.8v2.7H931v0.6c0,2.7,0.5,4.7,1.5,5.9c1,1.2,2.5,1.8,4.4,1.8
		c1.2,0,2.3-0.2,3.2-0.7c0.9-0.5,1.8-1.2,2.6-2.2l2.1,2.6C943.1,198.3,940.4,199.6,936.7,199.6z M936.3,177c-1.7,0-3,0.6-3.8,1.8
		c-0.8,1.2-1.3,3-1.4,5.5h9.9v-0.6c-0.1-2.4-0.5-4.1-1.3-5.1C939,177.5,937.8,177,936.3,177z"/>
	<path class="st4" d="M954,173.9l0.1,2.7c1.6-2.1,3.6-3.2,6.1-3.2c4.5,0,6.7,3,6.8,8.9v16.8h-4.1v-16.6c0-2-0.3-3.4-1-4.2
		c-0.7-0.8-1.7-1.2-3-1.2c-1,0-1.9,0.3-2.8,1c-0.8,0.7-1.5,1.6-2,2.7v18.3h-4.1v-25.2H954z"/>
	<path class="st4" d="M972.4,185.4c0-3.9,0.7-6.9,2.1-8.9c1.4-2,3.5-3,6.3-3c2.6,0,4.5,1.1,5.9,3.3l0.2-2.8h3.7v25.5
		c0,3.1-0.8,5.5-2.4,7.2c-1.6,1.7-3.8,2.5-6.7,2.5c-1.2,0-2.6-0.3-4.2-0.9s-2.7-1.4-3.5-2.3l1.7-2.8c1.7,1.7,3.6,2.5,5.7,2.5
		c3.4,0,5.2-1.9,5.3-5.6v-3.3c-1.3,2-3.2,3-5.7,3c-2.6,0-4.6-1-6.1-3c-1.5-2-2.2-4.8-2.3-8.5V185.4z M976.5,187.7
		c0,2.8,0.4,4.9,1.2,6.2c0.8,1.3,2.2,2,4.1,2c2.1,0,3.6-1,4.6-3.1v-12.6c-1.1-2.1-2.6-3.1-4.6-3.1c-1.9,0-3.3,0.7-4.1,2
		c-0.8,1.3-1.3,3.4-1.3,6.1V187.7z"/>
	<path class="st4" d="M1005.7,199.6c-3.1,0-5.6-0.9-7.2-2.8c-1.7-1.9-2.5-4.6-2.6-8.2v-3.1c0-3.8,0.8-6.7,2.5-8.9
		c1.6-2.1,3.9-3.2,6.9-3.2c3,0,5.2,0.9,6.6,2.8c1.5,1.9,2.2,4.8,2.2,8.8v2.7H1000v0.6c0,2.7,0.5,4.7,1.5,5.9c1,1.2,2.5,1.8,4.4,1.8
		c1.2,0,2.3-0.2,3.2-0.7c0.9-0.5,1.8-1.2,2.6-2.2l2.1,2.6C1012.1,198.3,1009.4,199.6,1005.7,199.6z M1005.3,177
		c-1.7,0-3,0.6-3.8,1.8c-0.8,1.2-1.3,3-1.4,5.5h9.9v-0.6c-0.1-2.4-0.5-4.1-1.3-5.1C1008,177.5,1006.8,177,1005.3,177z"/>
</g>
</svg>
