<?xml version="1.0" encoding="utf-8"?>
<!-- Generator: Adobe Illustrator 21.0.0, SVG Export Plug-In . SVG Version: 6.00 Build 0)  -->
<svg version="1.1" id="Layer_1" xmlns="http://www.w3.org/2000/svg" xmlns:xlink="http://www.w3.org/1999/xlink" x="0px" y="0px"
	 viewBox="0 0 250 250" enable-background="new 0 0 250 250" xml:space="preserve">
<g>
	<rect x="0" y="0" fill="#EBEBEB" width="250" height="250"/>
</g>
<g>
	<g>
		<circle fill="#999999" cx="225" cy="25" r="5"/>
	</g>
	<g>
		<circle fill="#999999" cx="175" cy="25" r="5"/>
	</g>
	<g>
		<circle fill="#999999" cx="125" cy="25" r="5"/>
	</g>
	<g>
		<circle fill="#999999" cx="75" cy="25" r="5"/>
	</g>
	<g>
		<circle fill="#999999" cx="25" cy="25" r="5"/>
	</g>
</g>
<g>
	<g>
		<g>
			<circle fill="#CCCCCC" cx="225" cy="225" r="5"/>
		</g>
		<g>
			<circle fill="#CCCCCC" cx="175" cy="225" r="5"/>
		</g>
		<g>
			<circle fill="#CCCCCC" cx="125" cy="225" r="5"/>
		</g>
		<g>
			<circle fill="#CCCCCC" cx="75" cy="225" r="5"/>
		</g>
		<g>
			<circle fill="#CCCCCC" cx="25" cy="225" r="5"/>
		</g>
	</g>
	<g>
		<g>
			<circle fill="#CCCCCC" cx="225" cy="175" r="5"/>
		</g>
		<g>
			<circle fill="#CCCCCC" cx="175" cy="175" r="5"/>
		</g>
		<g>
			<circle fill="#CCCCCC" cx="125" cy="175" r="5"/>
		</g>
		<g>
			<circle fill="#CCCCCC" cx="75" cy="175" r="5"/>
		</g>
		<g>
			<circle fill="#CCCCCC" cx="25" cy="175" r="5"/>
		</g>
	</g>
	<g>
		<g>
			<circle fill="#CCCCCC" cx="225" cy="125" r="5"/>
		</g>
		<g>
			<circle fill="#CCCCCC" cx="175" cy="125" r="5"/>
		</g>
		<g>
			<circle fill="#CCCCCC" cx="125" cy="125" r="5"/>
		</g>
		<g>
			<circle fill="#CCCCCC" cx="75" cy="125" r="5"/>
		</g>
		<g>
			<circle fill="#CCCCCC" cx="25" cy="125" r="5"/>
		</g>
	</g>
	<g>
		<g>
			<circle fill="#CCCCCC" cx="225" cy="75" r="5"/>
		</g>
		<g>
			<circle fill="#CCCCCC" cx="175" cy="75" r="5"/>
		</g>
		<g>
			<circle fill="#CCCCCC" cx="125" cy="75" r="5"/>
		</g>
		<g>
			<circle fill="#CCCCCC" cx="75" cy="75" r="5"/>
		</g>
		<g>
			<circle fill="#CCCCCC" cx="25" cy="75" r="5"/>
		</g>
	</g>
	<g>
		<g>
			<circle fill="#CCCCCC" cx="225" cy="25" r="5"/>
		</g>
		<g>
			<circle fill="#CCCCCC" cx="175" cy="25" r="5"/>
		</g>
		<g>
			<circle fill="#CCCCCC" cx="125" cy="25" r="5"/>
		</g>
		<g>
			<circle fill="#CCCCCC" cx="75" cy="25" r="5"/>
		</g>
		<g>
			<circle fill="#CCCCCC" cx="25" cy="25" r="5"/>
		</g>
	</g>
</g>
</svg>
