<?xml version="1.0" encoding="utf-8"?>
<!-- Generator: Adobe Illustrator 21.0.0, SVG Export Plug-In . SVG Version: 6.00 Build 0)  -->
<svg version="1.1" id="Layer_1" xmlns="http://www.w3.org/2000/svg" xmlns:xlink="http://www.w3.org/1999/xlink" x="0px" y="0px"
	 viewBox="0 0 100 100" enable-background="new 0 0 100 100" xml:space="preserve">
<rect fill="#F54E4E" width="100" height="100"/>
<line opacity="0.18" fill="none" stroke="#FFFFFF" stroke-width="1.5" stroke-miterlimit="10" x1="50" y1="100" x2="50" y2="0"/>
<rect x="98.5" opacity="0.18" fill="#FFFFFF" width="1.5" height="100"/>
<rect x="0" y="0" opacity="0.18" fill="#FFFFFF" width="100" height="1.5"/>
<g opacity="0.1">
	<g>
		<line fill="none" stroke="#FFFFFF" stroke-linecap="round" stroke-linejoin="round" x1="16.7" y1="99.5" x2="16.7" y2="99"/>
		
			<line fill="none" stroke="#FFFFFF" stroke-linecap="round" stroke-linejoin="round" stroke-dasharray="0.995,2.9849" x1="16.7" y1="96" x2="16.7" y2="2"/>
		<line fill="none" stroke="#FFFFFF" stroke-linecap="round" stroke-linejoin="round" x1="16.7" y1="0.5" x2="16.7" y2="0"/>
	</g>
</g>
<g opacity="0.1">
	<g>
		<line fill="none" stroke="#FFFFFF" stroke-linecap="round" stroke-linejoin="round" x1="33.3" y1="99.5" x2="33.3" y2="99"/>
		
			<line fill="none" stroke="#FFFFFF" stroke-linecap="round" stroke-linejoin="round" stroke-dasharray="0.995,2.9849" x1="33.3" y1="96" x2="33.3" y2="2"/>
		<line fill="none" stroke="#FFFFFF" stroke-linecap="round" stroke-linejoin="round" x1="33.3" y1="0.5" x2="33.3" y2="0"/>
	</g>
</g>
<g opacity="0.1">
	<g>
		<line fill="none" stroke="#FFFFFF" stroke-linecap="round" stroke-linejoin="round" x1="65.7" y1="99.5" x2="65.7" y2="99"/>
		
			<line fill="none" stroke="#FFFFFF" stroke-linecap="round" stroke-linejoin="round" stroke-dasharray="0.995,2.9849" x1="65.7" y1="96" x2="65.7" y2="2"/>
		<line fill="none" stroke="#FFFFFF" stroke-linecap="round" stroke-linejoin="round" x1="65.7" y1="0.5" x2="65.7" y2="0"/>
	</g>
</g>
<g opacity="0.1">
	<g>
		<line fill="none" stroke="#FFFFFF" stroke-linecap="round" stroke-linejoin="round" x1="82.3" y1="99.5" x2="82.3" y2="99"/>
		
			<line fill="none" stroke="#FFFFFF" stroke-linecap="round" stroke-linejoin="round" stroke-dasharray="0.995,2.9849" x1="82.3" y1="96" x2="82.3" y2="2"/>
		<line fill="none" stroke="#FFFFFF" stroke-linecap="round" stroke-linejoin="round" x1="82.3" y1="0.5" x2="82.3" y2="0"/>
	</g>
</g>
<line opacity="0.18" fill="none" stroke="#FFFFFF" stroke-width="1.5" stroke-miterlimit="10" x1="99.5" y1="49.7" x2="0" y2="49.7"/>
<g opacity="0.1">
	<g>
		<line fill="none" stroke="#FFFFFF" stroke-linecap="round" stroke-linejoin="round" x1="99.5" y1="83" x2="99" y2="83"/>
		
			<line fill="none" stroke="#FFFFFF" stroke-linecap="round" stroke-linejoin="round" stroke-dasharray="0.995,2.9849" x1="96" y1="83" x2="2" y2="83"/>
		<line fill="none" stroke="#FFFFFF" stroke-linecap="round" stroke-linejoin="round" x1="0.5" y1="83" x2="0" y2="83"/>
	</g>
</g>
<g opacity="0.1">
	<g>
		<line fill="none" stroke="#FFFFFF" stroke-linecap="round" stroke-linejoin="round" x1="99.5" y1="66.3" x2="99" y2="66.3"/>
		
			<line fill="none" stroke="#FFFFFF" stroke-linecap="round" stroke-linejoin="round" stroke-dasharray="0.995,2.9849" x1="96" y1="66.3" x2="2" y2="66.3"/>
		<line fill="none" stroke="#FFFFFF" stroke-linecap="round" stroke-linejoin="round" x1="0.5" y1="66.3" x2="0" y2="66.3"/>
	</g>
</g>
<g opacity="0.1">
	<g>
		<line fill="none" stroke="#FFFFFF" stroke-linecap="round" stroke-linejoin="round" x1="99.5" y1="34" x2="99" y2="34"/>
		
			<line fill="none" stroke="#FFFFFF" stroke-linecap="round" stroke-linejoin="round" stroke-dasharray="0.995,2.9849" x1="96" y1="34" x2="2" y2="34"/>
		<line fill="none" stroke="#FFFFFF" stroke-linecap="round" stroke-linejoin="round" x1="0.5" y1="34" x2="0" y2="34"/>
	</g>
</g>
<g opacity="0.1">
	<g>
		<line fill="none" stroke="#FFFFFF" stroke-linecap="round" stroke-linejoin="round" x1="99.5" y1="17.3" x2="99" y2="17.3"/>
		
			<line fill="none" stroke="#FFFFFF" stroke-linecap="round" stroke-linejoin="round" stroke-dasharray="0.995,2.9849" x1="96" y1="17.3" x2="2" y2="17.3"/>
		<line fill="none" stroke="#FFFFFF" stroke-linecap="round" stroke-linejoin="round" x1="0.5" y1="17.3" x2="0" y2="17.3"/>
	</g>
</g>
</svg>
