<svg xmlns="http://www.w3.org/2000/svg" viewBox="0 0 469.02 87.24"><defs><style>.cls-1{font-size:74.48px;font-family:Norwester-Regular, Norwester;}.cls-1,.cls-7{fill:#fff;}.cls-2{letter-spacing:-0.02em;}.cls-3{letter-spacing:-0.03em;}.cls-4{letter-spacing:0em;}.cls-5{letter-spacing:-0.02em;}.cls-6{letter-spacing:-0.01em;}</style></defs><title>Asset 3</title><g id="Layer_2" data-name="Layer 2"><g id="Layer_1-2" data-name="Layer 1"><text class="cls-1" transform="translate(97.6 73.1)"><tspan class="cls-2">A</tspan><tspan class="cls-3" x="42.16" y="0">C</tspan><tspan class="cls-4" x="77.23" y="0">T</tspan><tspan class="cls-5" x="111.49" y="0">I</tspan><tspan x="127.58" y="0">VI</tspan><tspan class="cls-6" x="185.6" y="0">T</tspan><tspan x="219.11" y="0">Y</tspan></text><path class="cls-7" d="M82.89,0H4.35A4.35,4.35,0,0,0,0,4.35V82.89a4.35,4.35,0,0,0,4.35,4.35H82.89a4.35,4.35,0,0,0,4.35-4.35V4.35A4.35,4.35,0,0,0,82.89,0Zm-4.2,36.19c-.26.83-1.35,1.7-5.15,2.92a55.22,55.22,0,0,1-7.72,1.8l.42,1a20.43,20.43,0,0,1,2.52,3.69,15.4,15.4,0,0,1,1,5,2.58,2.58,0,0,1,.11.81A7.81,7.81,0,0,1,68.07,55c-.19.52-.38,1.08-.55,1.69a6.86,6.86,0,0,1-1,2.21A8.26,8.26,0,0,1,64.65,61a7.94,7.94,0,0,1-3.55,1l.39,6.21a20.38,20.38,0,0,1-.23,3.12c-.16,2.26,0,1.91-2.56,1.78a36.28,36.28,0,0,1-4.45-.6c-2.25-.15-4.89-.44-5.18-.35a1,1,0,0,1-.49.13l-1.25,0a19.88,19.88,0,0,0-2.16.22c-1,.21-1.33-.22-1.33-.22l-.4,0c-.64-.07-1.42,0-1.55-.23l-.13-.24s-.44-.3-.14-.47l.3-.17a1.76,1.76,0,0,1-.25-.37c-.18,0-.34-.08-.37-.16s.22-.58.53-.66a9.86,9.86,0,0,1,1.55-.37,7,7,0,0,1,1.64,0h0a1.3,1.3,0,0,1,.69-.41c.32,0,1.41-.15,2.23-.24h0a7.75,7.75,0,0,1,1.42-.22c.3-.14,4.58-.54,4.66-.54h0l.71-.25h0c.83-.36,2-1,2-1s0-.17,0-.78a6.63,6.63,0,0,0-.4-1.95c-1.64-1-2.14-4.19-2.14-4.19h-.44c-.44,0-3.36-.3-3.71-.35A5.78,5.78,0,0,0,48,60.83c-.59.44-1.33-1.12-1.33-1.12l-.52-.32L46,59.21a2.92,2.92,0,0,1-.26-.7s-1,.32-1,0a5.82,5.82,0,0,1-.08-1.57c.09-.69-.42-.69-.83-1.09s-.53-3-.53-3l.33-1.05a5.63,5.63,0,0,0,.5-.72,4.45,4.45,0,0,1,1.22-.94,8.45,8.45,0,0,1,1.28-.89,8.8,8.8,0,0,1,3.66-.55c1.33,0,2.69,2.21,3,2.6s.75,1.28.75,1.28.73-.44,1.23-.8S58,49.88,58,49.88l1.51-1a2.34,2.34,0,0,0,0-.89l0,0h-.64a2.52,2.52,0,0,1-1.18-.35s-3.34-1.25-4.45-2.71S51.2,43,48.42,42.92s-8.9-1.39-11.75-1.25-3.83,1-7,.14-8.9-2.29-9.94-2.29a3.83,3.83,0,0,0-2.22.42c-.49.35-1.39.35-2.36-.7a7.74,7.74,0,0,0-4.17-1.74c-1-.07-1.46-.56-1.46-.83s-1.39-.21-1-1.25a2.28,2.28,0,0,1,1.74-.63,51.59,51.59,0,0,0,6.19.63,4.51,4.51,0,0,1,2.37,0,63.52,63.52,0,0,0,11,1.38,85.78,85.78,0,0,0,8.62-1c2.37-.3,10.29-.79,12.94-.72s4.94.28,4.94.28a10.16,10.16,0,0,1,7.79-2.58,12.52,12.52,0,0,0,1.36.07,31.89,31.89,0,0,1,5.06.84s-1.61-2.7-1.92-3.23a43.39,43.39,0,0,1-2-4.32,16.54,16.54,0,0,0-1.22-2.35,3.75,3.75,0,0,0-.74-.83,8.14,8.14,0,0,0-1.26-.44c-.7-.17-.35-1.26-.22-2a14.45,14.45,0,0,0-.39-3.84c-.22-.79-.61-2.14-.65-2.35s0-1,.31-1.09,1.13.52,1.13.52l1,1c.57.57,3.36,5.45,3.36,5.45a32.9,32.9,0,0,1,2.27,3.71c.79,1.61,4.54,5.45,6.46,7.76S79,35.36,78.69,36.19Z"/><text class="cls-1" transform="translate(358.35 73.1)">NET</text></g></g></svg>