<?xml version="1.0" encoding="utf-8"?>
<!-- Generator: Adobe Illustrator 21.0.0, SVG Export Plug-In . SVG Version: 6.00 Build 0)  -->
<svg version="1.1" id="Layer_1" xmlns="http://www.w3.org/2000/svg" xmlns:xlink="http://www.w3.org/1999/xlink" x="0px" y="0px"
	 viewBox="0 0 1500.5 100.5" style="enable-background:new 0 0 1500.5 100.5;" xml:space="preserve">
<style type="text/css">
	.st0{fill:none;}
	.st1{fill:none;stroke:#666666;stroke-miterlimit:10;}
	.st2{fill:#333333;}
	.st3{fill:#555555;}
	.st4{fill:url(#SVGID_1_);}
	.st5{fill:none;stroke:#555555;stroke-linecap:round;stroke-linejoin:round;stroke-miterlimit:10;}
</style>
<pattern  x="0.4" y="101.8" width="35.4" height="53" patternUnits="userSpaceOnUse" id="CVPR_Rectangle_2" viewBox="17.7 -70.7 35.4 53" style="overflow:visible;">
	<g>
		<rect x="17.7" y="-70.7" class="st0" width="35.4" height="53"/>
		<g>
			<rect x="17.7" y="-70.7" class="st0" width="35.4" height="53"/>
			<g>
				<rect x="41" y="-82.7" transform="matrix(0.7071 -0.7071 0.7071 0.7071 65.5324 16.7568)" class="st1" width="24" height="24"/>
				
					<rect x="45.8" y="-77.9" transform="matrix(0.7071 -0.7071 0.7071 0.7071 65.5324 16.7568)" class="st1" width="14.4" height="14.4"/>
				
					<rect x="50.2" y="-73.6" transform="matrix(0.7071 -0.7071 0.7071 0.7071 65.5031 16.8275)" class="st1" width="5.8" height="5.8"/>
			</g>
			<g>
				
					<rect x="5.7" y="-82.7" transform="matrix(0.7071 -0.7071 0.7071 0.7071 55.1607 -8.2038)" class="st1" width="24" height="24"/>
				
					<rect x="10.5" y="-77.9" transform="matrix(0.7071 -0.7071 0.7071 0.7071 55.1607 -8.2038)" class="st1" width="14.4" height="14.4"/>
				
					<rect x="14.8" y="-73.6" transform="matrix(0.7071 -0.7071 0.7071 0.7071 55.1607 -8.2038)" class="st1" width="5.8" height="5.8"/>
			</g>
			<g>
				
					<rect x="23.4" y="-56.2" transform="matrix(0.7071 -0.7071 0.7071 0.7071 41.5938 12.0832)" class="st1" width="24" height="24"/>
				
					<rect x="28.2" y="-51.4" transform="matrix(0.7071 -0.7071 0.7071 0.7071 41.5938 12.0832)" class="st1" width="14.4" height="14.4"/>
				
					<rect x="32.5" y="-47.1" transform="matrix(0.7071 -0.7071 0.7071 0.7071 41.5938 12.0832)" class="st1" width="5.8" height="5.8"/>
			</g>
			<g>
				<rect x="41" y="-29.7" transform="matrix(0.7071 -0.7071 0.7071 0.7071 28.0561 32.2996)" class="st1" width="24" height="24"/>
				
					<rect x="45.8" y="-24.9" transform="matrix(0.7071 -0.7071 0.7071 0.7071 28.0561 32.2996)" class="st1" width="14.4" height="14.4"/>
				
					<rect x="50.2" y="-20.5" transform="matrix(0.7071 -0.7071 0.7071 0.7071 28.0268 32.3703)" class="st1" width="5.8" height="5.8"/>
			</g>
			<g>
				<rect x="5.7" y="-29.7" transform="matrix(0.7071 -0.7071 0.7071 0.7071 17.6845 7.339)" class="st1" width="24" height="24"/>
				
					<rect x="10.5" y="-24.9" transform="matrix(0.7071 -0.7071 0.7071 0.7071 17.6844 7.339)" class="st1" width="14.4" height="14.4"/>
				
					<rect x="14.8" y="-20.6" transform="matrix(0.7071 -0.7071 0.7071 0.7071 17.6845 7.339)" class="st1" width="5.8" height="5.8"/>
			</g>
		</g>
	</g>
</pattern>
<g id="Layer_1_1_">
	<polygon class="st2" points="0.5,0 750.5,50 1500.5,100 0.5,100 	"/>
	<polygon class="st3" points="1500.5,0 750.5,50 1500.5,100 	"/>
	<pattern  id="SVGID_1_" xlink:href="#CVPR_Rectangle_2" patternTransform="matrix(1 0 0 -1 -17.6 -16499.6934)">
	</pattern>
	<polygon class="st4" points="1500.5,0 750.5,50 1500.5,100 	"/>
	<line class="st5" x1="750.5" y1="50.3" x2="0.5" y2="100"/>
</g>
<g id="Layer_2">
</g>
</svg>
